<?xml version="1.0"?><!DOCTYPE svg  PUBLIC '-//W3C//DTD SVG 1.1//EN'  'http://www.w3.org/Graphics/SVG/1.1/DTD/svg11.dtd'><svg height="512px" style="enable-background:new 0 0 512 512;" version="1.1" viewBox="0 0 512 512" width="512px" xml:space="preserve" xmlns="http://www.w3.org/2000/svg" xmlns:xlink="http://www.w3.org/1999/xlink"><g id="形状_2_3_" style="enable-background:new    ;"><g id="形状_2"><g><path d="M206.929,260.429h49.062     c-0.223,0.267,21.332,51.417,21.332,51.905h45.508c0.068,0.136-69.373-158.253-69.683-158.565     C253.834,153.236,207.372,260.56,206.929,260.429z M105.249,56.501c0.11-0.179,0.354,255.122,0.354,255.48     c0.355,0.333,106.613-255.547,106.303-255.48H105.249z M293.098,56.501c0,0,110.278,256.438,110.211,255.61     c0,0.358,0.077-254.966,0.077-255.61H293.098z" style="fill-rule:evenodd;clip-rule:evenodd;fill:#E6001F;"/></g></g></g><g id="形状_2_2_" style="enable-background:new    ;"><g id="形状_2_1_"><g><path d="M131.976,352.351l-23.695,101.397h17.262l3.95-18.976h21.438     l4.063,18.976h17.265l-23.696-101.397H131.976z M132.765,417.536l7.447-37.952l7.448,37.952H132.765z M209.501,385.231     c-4.288-5.647-7.108-7.822-13.089-7.822c-17.151,0-21.89,20.426-21.89,39.257c0,22.018,6.431,39.833,21.664,39.833     c6.433,0,11.508-4.632,13.879-11.589h0.563l0.452,8.838h13.653V352.351h-15.232V385.231z M200.249,441.869     c-8.689,0-9.93-15.354-9.93-24.913c0-20.571,5.755-24.628,9.93-24.628c4.061,0,9.928,4.057,9.928,24.628     C210.176,428.11,208.599,441.869,200.249,441.869z M261.302,377.409c-17.94,0-25.84,16.66-25.84,39.402     c0,23.032,8.013,39.688,25.84,39.688c17.717,0,25.839-16.655,25.839-39.688C287.141,394.069,279.13,377.409,261.302,377.409z      M261.302,441.725c-4.625,0-10.042-3.331-10.042-24.913c0-21.151,5.416-24.628,10.042-24.628c5.866,0,10.044,4.637,10.044,24.628     C271.346,435.643,267.846,441.725,261.302,441.725z M325.948,377.409c-3.838,0-9.818,1.45-12.976,8.692v-33.751h-15.346v101.397     h13.653l0.45-8.838h0.449c3.273,8.258,7.223,11.589,13.881,11.589c16.138,0,21.891-17.671,21.891-39.833     C347.951,394.359,342.082,377.409,325.948,377.409z M322.222,441.725c-8.688,0-9.926-15.354-9.926-24.913     c0-20.571,5.753-24.628,9.926-24.628c4.065,0,9.93,4.057,9.93,24.628C332.151,427.965,330.57,441.725,322.222,441.725z      M406.751,418.262c0-35.201-14.33-40.853-24.488-40.853c-16.133,0-26.513,14.194-26.513,39.402     c0,36.212,16.022,39.688,25.387,39.688c8.35,0,20.76-1.735,24.599-24.043h-15.345c-1.47,8.258-5.082,9.269-8.577,9.269     c-4.288,0-10.269-2.026-10.269-19.411h35.206V418.262z M371.545,410.004c0.111-5.507,1.581-17.82,10.269-17.82     c5.076,0,8.688,2.9,9.138,17.82H371.545z" style="fill-rule:evenodd;clip-rule:evenodd;fill:#1B1B1B;"/></g></g></g></svg>