<?xml version="1.0"?><svg id="Layer_1" style="enable-background:new 0 0 70 70;" version="1.1" viewBox="0 0 70 70" xml:space="preserve" xmlns="http://www.w3.org/2000/svg" xmlns:xlink="http://www.w3.org/1999/xlink"><g><path d="M32.6,13.1c0,0.6,0.4,1,1,1h2.8c0.6,0,1-0.4,1-1s-0.4-1-1-1h-2.8C33,12.1,32.6,12.6,32.6,13.1z"/><path d="M31.3,8.4h1.1c0.6,0,1-0.4,1-1s-0.4-1-1-1h-1.1c-0.6,0-1,0.4-1,1S30.7,8.4,31.3,8.4z"/><path d="M37.7,8.4h1.1c0.6,0,1-0.4,1-1s-0.4-1-1-1h-1.1c-0.6,0-1,0.4-1,1S37.1,8.4,37.7,8.4z"/><path d="M35,22c-1.9,0-3.5,1.6-3.5,3.5S33.1,29,35,29c1.9,0,3.5-1.6,3.5-3.5S36.9,22,35,22z M35,27c-0.8,0-1.5-0.7-1.5-1.5   S34.2,24,35,24c0.8,0,1.5,0.7,1.5,1.5S35.8,27,35,27z"/><path d="M53.5,41.4v-5c0.4-0.5,0.7-1.1,0.7-1.8V21.4c0-1.2-0.8-2.2-2-2.5c0-1.5-1.1-2.5-2.4-2.5h-7.6c-0.7-0.5-1.4-0.9-2.3-1   c0.3-1.1,0.9-2,1.9-2.6c0.6-0.3,0.9-0.9,0.9-1.6V3.9c0-1-0.8-1.9-1.9-1.9H29.2c-1,0-1.9,0.8-1.9,1.9v7.4c0,0.7,0.3,1.3,0.9,1.6   c0.9,0.6,1.6,1.5,1.8,2.6c-0.8,0.1-1.6,0.4-2.3,1h-7.6c-1.2,0-2.4,0.9-2.4,2.5c-1.1,0.3-2,1.3-2,2.5v13.2c0,0.7,0.3,1.3,0.7,1.8v5   c-0.8,0.7-1.4,1.8-1.4,3v3.5c0,0.6,0.4,1,1,1s1-0.4,1-1v-3.5c0-1.1,0.9-2,2-2c1.2,0,2.1,0.9,2.1,2v3.5c0,0.6,0.4,1,1,1s1-0.4,1-1   v-3.5c0-1.2-0.5-2.3-1.4-3v-5c0.4-0.5,0.7-1.1,0.7-1.8V24h4.4l1.9,7.7l-0.3,1.6c-1.5,1.7-2.8,4.8-2.8,5.4v4.6c0,0.1,0,0.2,0.1,0.4   c-1.2,1.4-1.3,3.5-0.1,5c-0.1,0.3-0.9,10-0.9,10.3c0,0.6,0.4,1,1,1.1v2.3c-1,0.9-1.4,2-1.4,3.2V67c0,0.6,0.4,1,1,1H32   c0.6,0,1-0.4,1-1v-1.5c0-1.3-0.6-2.4-1.4-3.2V60c0.6,0,1-0.5,1-1.1c0-0.3-0.8-10.1-0.9-10.3c1.2-1.5,1.2-3.5-0.1-5   c0-0.1,0.1-0.2,0.1-0.3v-5h6.6v5c0,0.1,0,0.2,0.1,0.4c-1.2,1.4-1.3,3.5-0.1,5c-0.1,0.3-0.9,10-0.9,10.3c0,0.6,0.4,1,1,1.1v2.3   c-0.9,0.8-1.4,1.9-1.4,3.2V67c0,0.6,0.4,1,1,1h6.7c0.6,0,1-0.4,1-1v-1.5c0-1.2-0.4-2.3-1.4-3.2V60c0.6,0,1-0.5,1-1.1   c0-0.3-0.8-10.1-0.9-10.3c1.2-1.5,1.2-3.5-0.1-5c0-0.1,0.1-0.2,0.1-0.3v-4.6c0-0.6-1.3-3.7-2.8-5.4l-0.2-1.5l1.9-7.7h4.4v10.6   c0,0.7,0.3,1.3,0.7,1.8v5c-0.8,0.7-1.4,1.8-1.4,3v3.5c0,0.6,0.4,1,1,1s1-0.4,1-1v-3.5c0-1.1,0.9-2,2.1-2c1.1,0,2,0.9,2,2v3.5   c0,0.6,0.4,1,1,1s1-0.4,1-1v-3.5C54.9,43.2,54.3,42.1,53.5,41.4z M19.8,40.4c-0.6-0.1-0.8-0.1-1.3,0v-3.3h1.3V40.4z M20.5,23   C20.5,23,20.5,23,20.5,23C20.5,23,20.5,23,20.5,23v11.6c0,0.3-0.3,0.6-0.6,0.6h-1.6c-0.3,0-0.6-0.3-0.6-0.6V21.4   c0-0.3,0.3-0.6,0.6-0.6H20c0.3,0,0.6,0.3,0.6,0.6V23z M22.5,22v-0.6c0-1.3-0.9-2.6-2.8-2.6c0-0.3,0.2-0.4,0.4-0.4h6.2   c-0.5,1.5-0.2,2.5,0.1,3.6H22.5z M29.3,11.2V4h11.5v7.2c-1.5,0.9-2.5,2.5-2.8,4.2h-5.8C31.8,13.7,30.8,12.2,29.3,11.2z M27.7,38.8   c0.4-1.2,0.9-2.2,1.4-3l0.6,1.6v4.8h-2V38.8z M28.7,44.2c1,0,1.9,0.8,1.9,1.9c0,1-0.8,1.9-1.9,1.9c-1.1,0-1.9-0.8-1.9-1.9   C26.8,45.1,27.7,44.2,28.7,44.2z M26.9,58l0.7-8h2.3l0.7,8H26.9z M29.6,60v1.2c-0.7-0.1-1.2-0.1-1.8,0V60H29.6z M31,66h-4.7v-0.5   c0-1.3,1.1-2.3,2.3-2.3c1.3,0,2.3,1,2.3,2.3V66z M31.4,36.2l-0.6-1.6c2.3,1.4,6.1,1.3,8.4-0.2l-0.6,1.8H31.4z M43.6,66H39v-0.5   c0-1.3,1-2.3,2.3-2.3c1.3,0,2.3,1,2.3,2.3V66z M39.5,58l0.7-8h2.3l0.7,8H39.5z M42.2,60v1.3c-0.6-0.1-1.2-0.1-1.8,0V60H42.2z    M43.2,46.1c0,1-0.8,1.9-1.9,1.9c-1.1,0-1.9-0.8-1.9-1.9c0-1,0.8-1.9,1.9-1.9C42.3,44.2,43.2,45.1,43.2,46.1z M42.3,38.8v3.4h-2   v-4.8l0.6-1.6C41.4,36.6,41.9,37.6,42.3,38.8z M41.9,20.6l-2.6,10.8c-0.8,2.9-8,3-8.5,0l-2.6-10.8c-0.4-1.6,0.8-3.2,2.5-3.2   c3.1,0,5.2,0,8.8,0c0.8,0,1.5,0.4,2,1S42.1,19.8,41.9,20.6z M47.5,21.4V22h-3.9c0.3-1,0.6-2.1,0.1-3.6h6.2c0.2,0,0.4,0.1,0.4,0.4   C48.4,18.8,47.5,20.1,47.5,21.4z M51.5,40.4c-0.5-0.1-0.7-0.1-1.3,0v-3.3h1.3V40.4z M52.2,34.6c0,0.3-0.3,0.6-0.6,0.6H50   c-0.3,0-0.6-0.3-0.6-0.6V23c0,0,0,0,0,0s0,0,0,0v-1.6c0-0.3,0.3-0.6,0.6-0.6h1.6c0.3,0,0.6,0.3,0.6,0.6V34.6z"/></g></svg>