<?xml version="1.0"?><!DOCTYPE svg  PUBLIC '-//W3C//DTD SVG 1.1//EN'  'http://www.w3.org/Graphics/SVG/1.1/DTD/svg11.dtd'><svg xmlns="http://www.w3.org/2000/svg" xmlns:xlink="http://www.w3.org/1999/xlink" xmlns:serif="http://www.serif.com/" width="100%" height="100%" viewBox="0 0 64 64" version="1.1" xml:space="preserve" style="fill-rule:evenodd;clip-rule:evenodd;stroke-linejoin:round;stroke-miterlimit:2;"><g><path d="M3,8L3,61C3,62.105 3.895,63 5,63L59,63C60.105,63 61,62.105 61,61L61,8C61,6.895 60.105,6 59,6L54,6L54,3C54,1.896 53.104,1 52,1C50.896,1 50,1.896 50,3L50,6L44,6L44,3C44,1.896 43.104,1 42,1C40.896,1 40,1.896 40,3L40,6L34,6L34,3C34,1.896 33.104,1 32,1C30.896,1 30,1.896 30,3L30,6L24,6L24,3C24,1.896 23.104,1 22,1C20.896,1 20,1.896 20,3L20,6L14,6L14,3C14,1.896 13.104,1 12,1C10.896,1 10,1.896 10,3L10,6L5,6C3.895,6 3,6.895 3,8ZM14,57L20,57C21.104,57 22,56.104 22,55C22,53.896 21.104,53 20,53L14,53C12.896,53 12,53.896 12,55C12,56.104 12.896,57 14,57ZM29,57L35,57C36.104,57 37,56.104 37,55C37,53.896 36.104,53 35,53L29,53C27.896,53 27,53.896 27,55C27,56.104 27.896,57 29,57ZM14,47L20,47C21.104,47 22,46.104 22,45C22,43.896 21.104,43 20,43L14,43C12.896,43 12,43.896 12,45C12,46.104 12.896,47 14,47ZM29,47L35,47C36.104,47 37,46.104 37,45C37,43.896 36.104,43 35,43L29,43C27.896,43 27,43.896 27,45C27,46.104 27.896,47 29,47ZM44,47L50,47C51.104,47 52,46.104 52,45C52,43.896 51.104,43 50,43L44,43C42.896,43 42,43.896 42,45C42,46.104 42.896,47 44,47ZM14,37L20,37C21.104,37 22,36.104 22,35C22,33.896 21.104,33 20,33L14,33C12.896,33 12,33.896 12,35C12,36.104 12.896,37 14,37ZM29,37L35,37C36.104,37 37,36.104 37,35C37,33.896 36.104,33 35,33L29,33C27.896,33 27,33.896 27,35C27,36.104 27.896,37 29,37ZM44,37L50,37C51.104,37 52,36.104 52,35C52,33.896 51.104,33 50,33L44,33C42.896,33 42,33.896 42,35C42,36.104 42.896,37 44,37ZM14,27L20,27C21.104,27 22,26.104 22,25C22,23.896 21.104,23 20,23L14,23C12.896,23 12,23.896 12,25C12,26.104 12.896,27 14,27ZM29,27L35,27C36.104,27 37,26.104 37,25C37,23.896 36.104,23 35,23L29,23C27.896,23 27,23.896 27,25C27,26.104 27.896,27 29,27ZM44,27L50,27C51.104,27 52,26.104 52,25C52,23.896 51.104,23 50,23L44,23C42.896,23 42,23.896 42,25C42,26.104 42.896,27 44,27ZM57,16L57,10L54,10L54,12C54,13.104 53.104,14 52,14C50.896,14 50,13.104 50,12L50,10L44,10L44,12C44,13.104 43.104,14 42,14C40.896,14 40,13.104 40,12L40,10L34,10L34,12C34,13.104 33.104,14 32,14C30.896,14 30,13.104 30,12L30,10L24,10L24,12C24,13.104 23.104,14 22,14C20.896,14 20,13.104 20,12L20,10L14,10L14,12C14,13.104 13.104,14 12,14C10.896,14 10,13.104 10,12L10,10L7,10L7,16L57,16Z"/></g></svg>