<?xml version="1.0"?><svg id="Blue" viewBox="0 0 64 64" xmlns="http://www.w3.org/2000/svg"><circle cx="32" cy="32" r="29" style="fill:#6498f6"/><circle cx="32" cy="32" r="25" style="fill:#90b6f9"/><path d="M32,2A30,30,0,1,0,62,32,30.034,30.034,0,0,0,32,2Zm0,54A24,24,0,1,1,56,32,24.028,24.028,0,0,1,32,56ZM54.992,19.88l1.734-1a27.819,27.819,0,0,1,2.044,4.913l-1.932.517A25.789,25.789,0,0,0,54.992,19.88Zm-1-1.73a26.1,26.1,0,0,0-2.922-3.8l1.414-1.414a28.157,28.157,0,0,1,3.241,4.216Zm-4.336-5.216a26.1,26.1,0,0,0-3.8-2.922l1-1.733a28.157,28.157,0,0,1,4.216,3.241ZM44.12,9.008a25.789,25.789,0,0,0-4.429-1.846l.517-1.932a27.819,27.819,0,0,1,4.913,2.044ZM37.758,6.65A25.975,25.975,0,0,0,33,6.025v-2a27.936,27.936,0,0,1,5.275.693ZM31,6.025a25.975,25.975,0,0,0-4.758.625l-.517-1.932A27.936,27.936,0,0,1,31,4.025ZM24.309,7.162A25.789,25.789,0,0,0,19.88,9.008l-1-1.734A27.819,27.819,0,0,1,23.792,5.23Zm-6.159,2.85a26.1,26.1,0,0,0-3.8,2.922L12.934,11.52A28.157,28.157,0,0,1,17.15,8.279Zm-5.216,4.336a26.1,26.1,0,0,0-2.922,3.8l-1.733-1a28.157,28.157,0,0,1,3.241-4.216ZM9.008,19.88a25.789,25.789,0,0,0-1.846,4.429L5.23,23.792a27.819,27.819,0,0,1,2.044-4.913ZM6.65,26.242A25.975,25.975,0,0,0,6.025,31h-2a27.936,27.936,0,0,1,.693-5.275ZM6.025,33a25.975,25.975,0,0,0,.625,4.758l-1.932.517A27.936,27.936,0,0,1,4.025,33Zm1.137,6.691A25.789,25.789,0,0,0,9.008,44.12l-1.734,1A27.819,27.819,0,0,1,5.23,40.208Zm2.85,6.159a26.1,26.1,0,0,0,2.922,3.8L11.52,51.066A28.157,28.157,0,0,1,8.279,46.85Zm4.336,5.216a26.1,26.1,0,0,0,3.8,2.922l-1,1.733a28.157,28.157,0,0,1-4.216-3.241Zm5.532,3.926a25.789,25.789,0,0,0,4.429,1.846l-.517,1.932a27.819,27.819,0,0,1-4.913-2.044Zm6.363,2.358A25.953,25.953,0,0,0,31,57.975v2a27.936,27.936,0,0,1-5.275-.693ZM33,57.975a25.953,25.953,0,0,0,4.757-.625l.518,1.932A27.936,27.936,0,0,1,33,59.975Zm6.691-1.137a25.789,25.789,0,0,0,4.429-1.846l1,1.734a27.819,27.819,0,0,1-4.913,2.044Zm6.159-2.85a26.1,26.1,0,0,0,3.8-2.922l1.414,1.414a28.157,28.157,0,0,1-4.216,3.241Zm5.216-4.336a26.1,26.1,0,0,0,2.922-3.8l1.733,1a28.157,28.157,0,0,1-3.241,4.216Zm3.926-5.532a25.789,25.789,0,0,0,1.846-4.429l1.932.517a27.819,27.819,0,0,1-2.044,4.913Zm2.358-6.362A25.975,25.975,0,0,0,57.975,33h2a27.936,27.936,0,0,1-.693,5.275ZM57.975,31a25.975,25.975,0,0,0-.625-4.758l1.932-.517A27.936,27.936,0,0,1,59.975,31Z" style="fill:#0444b7"/><path d="M46.751,33.89l-2.628-1.9,2.634-1.914a5.442,5.442,0,0,0,.207-8.648l-5.34-4.284a1,1,0,0,0-1.213-.031l-6.706,4.859,1.7,1.235,5.558-4.026,4.745,3.807a3.443,3.443,0,0,1-.131,5.47l-3.162,2.3L23.589,17.109a1,1,0,0,0-1.213.031l-5.34,4.284a5.442,5.442,0,0,0,.207,8.648l2.634,1.914-2.627,1.9a5.441,5.441,0,0,0-.223,8.643l5.367,4.325a1,1,0,0,0,1.215.031l6.69-4.86-1.7-1.236-5.545,4.028-4.771-3.844a3.442,3.442,0,0,1,.141-5.468l3.156-2.287L40.391,46.889a1,1,0,0,0,1.215-.031l5.367-4.325a5.441,5.441,0,0,0-.222-8.643Zm-1.033,7.087-4.771,3.844L23.283,31.988l7.012-5.08-1.7-1.235-7.01,5.078-3.162-2.3a3.443,3.443,0,0,1-.131-5.47l4.745-3.807L40.717,31.988l-7.016,5.1,1.7,1.236,7.019-5.1,3.157,2.287a3.443,3.443,0,0,1,.14,5.468Z" style="fill:#0444b7"/></svg>