<?xml version="1.0"?><svg id="Layer_1_1_" style="enable-background:new 0 0 64 64;" version="1.1" viewBox="0 0 64 64" xml:space="preserve" xmlns="http://www.w3.org/2000/svg" xmlns:xlink="http://www.w3.org/1999/xlink"><path d="M56.085,26.341c1.072-1.931,1.636-4.093,1.636-6.31c0-2.269-0.603-4.513-1.745-6.49c-3.408-5.899-10.778-8.113-16.827-5.238  c-0.545-0.907-1.198-1.745-1.952-2.499C34.745,3.351,31.478,2,28,2c-6.81,0-12.409,5.274-12.946,11.968  c-4.547,0.083-8.757,2.552-11.029,6.491c-3.413,5.901-1.638,13.395,3.891,17.2C6.843,39.59,6.28,41.752,6.28,43.97  c0,2.269,0.603,4.513,1.745,6.49c2.406,4.166,6.79,6.5,11.288,6.5c1.872,0,3.765-0.408,5.543-1.253  c0.544,0.904,1.196,1.739,1.947,2.491C29.255,60.649,32.522,62,36,62c6.81,0,12.409-5.274,12.946-11.968  c4.547-0.083,8.757-2.552,11.029-6.491C63.389,37.64,61.614,30.146,56.085,26.341z M54.244,14.54  c0.966,1.674,1.477,3.572,1.477,5.49c0,1.845-0.464,3.644-1.342,5.257L40.5,17.273c-0.309-0.178-0.69-0.178-0.999,0l-14.513,8.359  l0.011-6.914l14.192-8.195c0.016-0.008,0.032-0.017,0.047-0.025C44.481,7.481,51.215,9.295,54.244,14.54z M39.016,36.058  l-7.025,4.046l-7.019-4.065l0.013-8.098l7.025-4.046l7.019,4.065L39.016,36.058z M17,14.982C17.009,8.927,21.943,4,28,4  c2.944,0,5.708,1.143,7.783,3.217c0.617,0.617,1.153,1.3,1.604,2.038L23.5,17.273c-0.309,0.179-0.5,0.508-0.5,0.864l-0.027,16.745  L17,31.424V14.982z M5.756,21.46c1.907-3.308,5.431-5.379,9.244-5.481V32c0,0.356,0.19,0.687,0.499,0.865l14.491,8.391L24,44.706  L9.849,36.534c-0.025-0.018-0.051-0.034-0.078-0.05C4.524,33.444,2.722,26.705,5.756,21.46z M9.756,49.46  c-0.966-1.674-1.477-3.572-1.477-5.49c0-1.845,0.464-3.644,1.342-5.257L23.5,46.727c0.155,0.089,0.327,0.134,0.5,0.134  c0.172,0,0.345-0.045,0.499-0.134l14.513-8.359l-0.011,6.914l-14.192,8.195c-0.016,0.008-0.032,0.017-0.047,0.025  C19.519,56.518,12.786,54.704,9.756,49.46z M47,49.018C46.991,55.073,42.057,60,36,60c-2.944,0-5.708-1.143-7.783-3.217  c-0.617-0.617-1.153-1.3-1.604-2.038L40.5,46.727c0.309-0.179,0.5-0.508,0.5-0.864l0.027-16.745L47,32.576V49.018z M58.244,42.54  c-1.907,3.308-5.431,5.379-9.244,5.481V32c0-0.356-0.19-0.687-0.499-0.865L34.01,22.743L40,19.294l14.151,8.172  c0.025,0.018,0.051,0.034,0.078,0.05C59.476,30.556,61.278,37.295,58.244,42.54z"/></svg>